<svg xmlns="http://www.w3.org/2000/svg" width="24" height="24">
<path fill="#fff" fill-rule="evenodd" d="M43 41H5a4 4 0 0 1-4-4V15a4 4 0 0 1 4-4h1a2 2 0 0 1 2-2h2a2 2 0 0 1 2 2h2s1.125-.125 2-1l2-2s.781-1 2-1h8c1.312 0 2 1 2 1l2 2c.875.875 2 1 2 1h9a4 4 0 0 1 4 4v22a4 4 0 0 1-4 4zm2-26a2 2 0 0 0-2-2l-9.221-.013c-.305-.033-1.889-.269-3.193-1.573l-2.13-2.13-.104-.151A.604.604 0 0 0 28 9h-8c-.153 0-.375.178-.424.231l-.075.096-2.087 2.086c-1.305 1.305-2.889 1.54-3.193 1.573l-4.151.006c-.024.002-.047.008-.07.008H8c-.014 0-.026-.004-.04-.004L5 13a2 2 0 0 0-2 2v22a2 2 0 0 0 2 2h38a2 2 0 0 0 2-2V15zM24 37c-6.075 0-11-4.925-11-11s4.925-11 11-11 11 4.925 11 11-4.925 11-11 11zm0-20c-4.971 0-9 4.029-9 9s4.029 9 9 9 9-4.029 9-9-4.029-9-9-9zm0 14c-2.762 0-5-2.238-5-5s2.238-5 5-5 5 2.238 5 5-2.238 5-5 5zm0-8a3.001 3.001 0 0 0 0 6 3 3 0 1 0 0-6zm-14-4H6a1 1 0 0 1-1-1v-2a1 1 0 0 1 1-1h4a1 1 0 0 1 1 1v2a1 1 0 0 1-1 1z" clip-rule="evenodd"/>
</svg>