<svg version="1.1" id="Layer_1" xmlns="http://www.w3.org/2000/svg" xmlns:xlink="http://www.w3.org/1999/xlink" x="0px" y="0px" viewBox="0 0 24 24" style="enable-background:new 0 0 18 18;" xml:space="preserve">
<path fill="#fff" id="cropper" class="profile-pic__cropper" d="M0,2v3c0,0.6,0.5,1,1,1s1-0.4,1-1V3c0-0.6,0.4-1,1-1h2c0.6,0,1-0.4,1-1S5.6,0,5,0H2C0.9,0,0,0.9,0,2z M1,12c-0.5,0-1,0.4-1,1v3c0,1.1,0.9,2,2,2h3c0.6,0,1-0.5,1-1s-0.4-1-1-1H3c-0.6,0-1-0.5-1-1v-2C2,12.4,1.6,12,1,12z M16,15c0,0.5-0.5,1-1,1h-2c-0.6,0-1,0.5-1,1s0.4,1,1,1h3c1.1,0,2-0.9,2-2v-3c0-0.6-0.5-1-1-1s-1,0.4-1,1V15zM16,0h-3c-0.6,0-1,0.5-1,1s0.4,1,1,1h2c0.5,0,1,0.4,1,1v2c0,0.6,0.5,1,1,1s1-0.4,1-1V2C18,0.9,17.1,0,16,0z"/>
</svg>
