<svg xmlns="http://www.w3.org/2000/svg" viewBox="0 0 32 32"><g data-name="Layer 2"><path d="M19 27H8a1 1 0 0 1-1-1v-1a9 9 0 0 1 15.36-6.36 1 1 0 0 0 1.41-1.41A11 11 0 0 0 20 14.75a7 7 0 1 0-8 0A11 11 0 0 0 5 25v1a3 3 0 0 0 3 3h11a1 1 0 0 0 0-2ZM11 9a5 5 0 1 1 5 5 5 5 0 0 1-5-5Z"/><path d="M28.15 21.2a3.24 3.24 0 0 0-2.27-1.2 3.17 3.17 0 0 0-1.88.47 3.13 3.13 0 0 0-1.88-.47 3.24 3.24 0 0 0-2.27 1.19 4 4 0 0 0 .15 5.09l2.81 3.17a1.59 1.59 0 0 0 2.41 0L28 26.28a4 4 0 0 0 .15-5.08ZM26.52 25 24 27.79 21.48 25a2 2 0 0 1-.1-2.48 1.26 1.26 0 0 1 .87-.48h.08a1.2 1.2 0 0 1 .8.33 1.29 1.29 0 0 0 1.73 0 1.17 1.17 0 0 1 .88-.32 1.26 1.26 0 0 1 .87.48 2 2 0 0 1-.09 2.47Z"/></g></svg>