<svg class="btn-submit__icon s24" xmlns="http://www.w3.org/2000/svg" width="32" height="32">
<path style="line-height:normal;text-indent:0;text-align:start;text-decoration-line:none;text-decoration-style:solid;text-decoration-color:#000;text-transform:none;block-progression:tb;isolation:auto;mix-blend-mode:normal" fill="#fff" d="M-56.186 554.992a.5.5 0 0 0-.132.018l-4.772 1.285a.5.5 0 1 0 .26.963l3.605-.969-3.26 5.645c-1.818-.77-3.963-.135-4.958 1.59-1.08 1.869-.391 4.285 1.51 5.382 1.9 1.098 4.334.485 5.413-1.384.996-1.724.475-3.898-1.1-5.088l3.26-5.645.962 3.606a.5.5 0 0 0 .923.117.5.5 0 0 0 .043-.373l-1.275-4.776a.5.5 0 0 0-.479-.37zm-15.402 3.46c-2.194 0-3.998 1.747-3.998 3.905 0 1.99 1.539 3.612 3.498 3.856v4.238h-1.978a.5.5 0 1 0 0 1h1.978v2.492a.5.5 0 1 0 1 0v-2.492h1.97a.5.5 0 1 0 0-1h-1.97v-4.238c1.959-.244 3.496-1.865 3.496-3.856 0-2.158-1.801-3.906-3.996-3.906zm0 1c1.668 0 2.996 1.302 2.996 2.905 0 1.604-1.328 2.907-2.996 2.907s-2.998-1.303-2.998-2.907c0-1.603 1.33-2.906 2.998-2.906zm9.356 3.144a3.057 3.057 0 0 1 1.705.41c1.444.834 1.944 2.627 1.142 4.015-.802 1.39-2.604 1.854-4.049 1.02-1.444-.834-1.944-2.629-1.142-4.018a2.875 2.875 0 0 1 2.344-1.427z" color="#000" font-family="sans-serif" font-weight="400" overflow="visible" transform="translate(80.585 -548.45)"/>
</svg>