<svg xmlns="http://www.w3.org/2000/svg" enable-background="new 0 0 512 512" viewBox="0 0 512 512">
<path fill="none" stroke="#fff" stroke-linecap="round" stroke-linejoin="round" stroke-miterlimit="10" stroke-width="15" d="M405.9,331.9c-2-6.8,0.9-14.1,7-17.7l18.7-10.9l56-32.6c10.4-6.1,10.2-21.1-0.4-26.9l-64.9-35.4l-7.3-4c-6.2-3.4-9.3-10.6-7.5-17.5l5.5-20.9l16.5-62.6c3.1-11.6-7.8-22.1-19.3-18.7l-70.9,20.9l-8,2.3c-6.8,2-14.1-0.9-17.7-7l-10.9-18.7l-32.7-56.5c-5.9-10.2-20.7-10.3-26.7,0l-32.7,56.1l-10.9,18.7c-3.6,6.1-10.9,9-17.7,7l-8-2.3l-70.9-20.9c-11.5-3.4-22.4,7.1-19.3,18.8l16.5,62.6l5.5,20.9c1.8,6.9-1.3,14.1-7.5,17.5l-7.3,4l-64.9,35.4c-10.6,5.8-10.8,20.8-0.4,26.9l56,32.6l18.7,10.9c6.1,3.6,9,10.9,7,17.7l-2.3,8l-20.9,70.9c-3.4,11.5,7.1,22.4,18.7,19.3l62.7-16.5l20.9-5.5c6.9-1.8,14.1,1.3,17.5,7.5l4,7.3l35.2,64.3c5.9,10.7,21.2,10.7,27.1,0l35.2-63.9l4-7.3c3.4-6.2,10.6-9.3,17.5-7.5l20.9,5.5l62.6,16.5c11.6,3.1,22.1-7.8,18.7-19.3l-20.9-70.9L405.9,331.9z"/>
<path fill="none" stroke="#fff" stroke-linecap="round" stroke-linejoin="round" stroke-miterlimit="10" stroke-width="15" d="M394.6 231.4C382.7 165.8 325.3 116 256.2 116c-68 0-124.7 48.2-137.8 112.3M121.3 296.8c17.3 58.2 71.1 100.6 134.9 100.6S373.8 355 391.1 296.8"/>
<polyline fill="none" stroke="#fff" stroke-linecap="round" stroke-linejoin="round" stroke-miterlimit="10" stroke-width="15" points="155.9 290.9 155.9 214 194.3 290.9 194.3 214"/>
<polygon fill="none" stroke="#fff" stroke-linecap="round" stroke-linejoin="round" stroke-miterlimit="10" stroke-width="15" points="223.1 214 223.1 290.9 261.6 290.9 223.1 290.9 223.1 262 223.1 252.4 261.6 252.4 223.1 252.4"/>
<line x1="261.6" x2="223.1" y1="214" y2="214" fill="none" stroke="#fff" stroke-linecap="round" stroke-linejoin="round" stroke-miterlimit="10" stroke-width="15"/>
<polyline fill="none" stroke="#fff" stroke-linecap="round" stroke-linejoin="round" stroke-miterlimit="10" stroke-width="15" points="280.8 214 300 290.9 319.2 252.4 338.4 290.9 357.6 214"/>
</svg>