<?xml version="1.0" encoding="utf-8"?>
<!-- Generator: Adobe Illustrator 27.0.0, SVG Export Plug-In . SVG Version: 6.00 Build 0)  -->
<svg class="side-nav-link-icon" version="1.1" id="Layer_1" xmlns="http://www.w3.org/2000/svg" xmlns:xlink="http://www.w3.org/1999/xlink" x="0px" y="0px" viewBox="0 0 32 32" style="enable-background:new 0 0 32 32;" xml:space="preserve">
<path fill="#fff" d="M18,26.7h-7.4c-0.4,0-0.7-0.3-0.7-0.7v-0.7c0-3.3,2.7-6,6-6c1.6,0,3.1,0.6,4.2,1.8c0.3,0.2,0.7,0.2,0.9-0.1c0.2-0.3,0.2-0.6,0-0.9c-0.7-0.7-1.6-1.3-2.5-1.7c2.1-1.5,2.6-4.4,1.2-6.5c-1.5-2.1-4.4-2.6-6.5-1.2s-2.6,4.4-1.2,6.5c0.3,0.5,0.7,0.8,1.2,1.2c-2.8,1.1-4.7,3.8-4.7,6.9V26c0,1.1,0.9,2,2,2H18c0.4,0,0.7-0.3,0.7-0.7S18.4,26.7,18,26.7z M12.6,14.7c0-1.8,1.5-3.3,3.3-3.3s3.3,1.5,3.3,3.3S17.8,18,16,18S12.6,16.6,12.6,14.7z"/>
<path fill="#fff" d="M24.1,22.9c-0.4-0.5-0.9-0.8-1.5-0.8c-0.4,0-0.9,0.1-1.3,0.3c-0.4-0.2-0.8-0.3-1.3-0.3c-0.6,0-1.1,0.3-1.5,0.8c-0.8,1-0.7,2.4,0.1,3.4l1.9,2.1c0.4,0.4,1.1,0.5,1.5,0.1l0.1-0.1l1.9-2.1C24.8,25.3,24.9,23.9,24.1,22.9z M23,25.4l-1.7,1.9l-1.7-1.9c-0.4-0.5-0.4-1.2-0.1-1.7c0.1-0.2,0.4-0.3,0.6-0.3h0.1c0.2,0,0.4,0.1,0.5,0.2c0.3,0.3,0.8,0.3,1.2,0c0.2-0.2,0.4-0.2,0.6-0.2s0.4,0.1,0.6,0.3C23.4,24.3,23.4,24.9,23,25.4z"/>
<path fill="#fff" d="M30.5,9.3v20.1h-29V9.3H30.5 M31.6,8.2H0.4v22.4h31.3L31.6,8.2L31.6,8.2z M3.1,6h25.7v1.1H3.1V6z M5.4,3.7h21.2v1.1H5.4V3.7z"/>
</svg>
