<?xml version="1.0" encoding="utf-8"?>
<!-- Generator: Adobe Illustrator 26.0.1, SVG Export Plug-In . SVG Version: 6.00 Build 0)  -->
<svg version="1.1" id="Layer_1" xmlns="http://www.w3.org/2000/svg" xmlns:xlink="http://www.w3.org/1999/xlink" x="0px" y="0px"
	 viewBox="0 0 800 800" style="enable-background:new 0 0 800 800;" xml:space="preserve">
<style type="text/css">
	.st0{fill:none;stroke:#000000;stroke-width:66.6667;stroke-linecap:round;stroke-linejoin:round;stroke-miterlimit:133.3333;}
</style>
<g id="Complete">
	<g id="thumbs-down">
		<path class="st0" d="M243.3,420l93.3,280c4.5,10.1,16.3,14.6,26.4,10.1c0.1,0,0.2-0.1,0.3-0.1l33.3-16.7
			c28.6-14.9,46.6-44.4,46.7-76.7v-130h213.3c36.8-0.7,66.1-31.1,65.4-67.9c-0.1-5.2-0.8-10.4-2.1-15.5l-66.7-266.7
			c-7.5-29-33.4-49.5-63.3-50H143.3c-36.8,0-66.7,29.8-66.7,66.7v200c0,36.8,29.8,66.7,66.7,66.7H243.3V86.7"/>
	</g>
</g>
</svg>
