<?xml version="1.0" encoding="utf-8"?>
<!-- Generator: Adobe Illustrator 27.0.0, SVG Export Plug-In . SVG Version: 6.00 Build 0)  -->
<svg class="side-nav-link-icon" version="1.1" id="Layer_1" xmlns="http://www.w3.org/2000/svg" xmlns:xlink="http://www.w3.org/1999/xlink" x="0px" y="0px"
	 viewBox="0 0 24 24" style="enable-background:new 0 0 24 24;" xml:space="preserve">
<path d="M13.3,3C8.2,2.9,4,6.9,4,12H2.2c-0.5,0-0.7,0.5-0.4,0.9l2.8,2.8c0.2,0.2,0.5,0.2,0.7,0l2.8-2.8C8.5,12.5,8.2,12,7.8,12H6
	c0-3.9,3.2-7.1,7.1-7c3.7,0.1,6.9,3.2,6.9,6.9c0,3.9-3.1,7.1-7,7.1c-1.6,0-3.1-0.5-4.3-1.5c-0.4-0.3-1-0.3-1.3,0.1
	C7,18,7,18.7,7.5,19.1C9,20.3,10.9,21,13,21c5,0,9.1-4.2,9-9.3C21.9,7,18,3.1,13.3,3z"/>
<path d="M10.7,11.3l1.7-1.7v7c0,0.4,0.3,0.7,0.7,0.7c0.4,0,0.7-0.3,0.7-0.7v-7l1.7,1.7c0.3,0.3,0.7,0.3,1,0l0,0c0.3-0.3,0.3-0.7,0-1
	c0,0,0,0,0,0l-2.9-2.9c-0.1-0.1-0.2-0.1-0.2-0.2c-0.2-0.1-0.4-0.1-0.6,0c-0.1,0-0.2,0.1-0.2,0.2l-2.9,2.9c-0.3,0.3-0.3,0.8,0,1
	S10.4,11.6,10.7,11.3z"/>
</svg>
