<?xml version="1.0" encoding="utf-8"?>
<!-- Generator: Adobe Illustrator 27.0.0, SVG Export Plug-In . SVG Version: 6.00 Build 0)  -->
<svg version="1.1" id="subscriptions-catalogs" xmlns="http://www.w3.org/2000/svg" xmlns:xlink="http://www.w3.org/1999/xlink" x="0px" y="0px" viewBox="0 0 20 20" style="enable-background:new 0 0 20 20;" xml:space="preserve">
<path id="Icon" class="st0" d="M12.1,12.5l-2.9,3.1l-2.1-2.1l-2.9,3.1h11.7L12.1,12.5z M12.1,12.5l-2.9,3.1l-2.1-2.1l-2.9,3.1h11.7L12.1,12.5z M17.5,7.1h-15c-0.8,0-1.7,0.7-1.7,1.4V18c0,0.8,0.8,1.4,1.7,1.4h15c0.8,0,1.7-0.7,1.7-1.4V8.4C19.2,7.7,18.3,7.1,17.5,7.1z M17.5,18C17.5,18,17.5,18,17.5,18L2.5,18V8.5c0.1-0.1,14.9-0.1,15,0V18z M9.2,15.6l-2.1-2.1l-2.9,3.1h11.7l-3.8-4.1L9.2,15.6z M12.1,12.5l-2.9,3.1l-2.1-2.1l-2.9,3.1h11.7L12.1,12.5z M12.1,12.5l-2.9,3.1l-2.1-2.1l-2.9,3.1h11.7L12.1,12.5z"/>
<path class="st1" d="M17.4,8.4H2.6L2.5,8.5V18h14.9c0,0,0,0,0.1-0.1L17.4,8.4C17.5,8.5,17.5,8.4,17.4,8.4z M4.2,16.7l2.9-3.1l2.1,2.1l2.9-3.1l3.8,4.1H4.2z"/>
<circle cx="9.6" cy="12.5" r="1.5"/>
<path class="st2" d="M3,5.9h14c0.5,0,1-0.2,1-0.4c0-0.2-0.5-0.4-1-0.4H3c-0.5,0-1,0.2-1,0.4C2,5.8,2.5,5.9,3,5.9z"/>
<path class="st2" d="M5,4h10c0.5,0,1-0.2,1-0.4s-0.5-0.4-1-0.4H5c-0.5,0-1,0.2-1,0.4S4.5,4,5,4z"/>
</svg>
